<?xml version="1.0" encoding="utf-8"?>
<!-- Generator: Adobe Illustrator 26.0.1, SVG Export Plug-In . SVG Version: 6.00 Build 0)  -->
<svg version="1.1" id="Calque_1" xmlns="http://www.w3.org/2000/svg" xmlns:xlink="http://www.w3.org/1999/xlink" x="0px" y="0px"
	 viewBox="0 0 520.95 355.32" style="enable-background:new 0 0 520.95 355.32;" xml:space="preserve">
<style type="text/css">
	.st0{fill:url(#SVGID_1_);}
	.st1{fill:url(#SVGID_00000132784818751485410390000007976083189373522877_);}
	.st2{fill:url(#SVGID_00000034060537146829750260000007927060252870714302_);}
</style>
<g>
	<g>
		<path d="M33.41,22.85h15.14v82.56h24.91v13.76H33.41V22.85z"/>
		<path d="M80.74,22.85h41.28v13.76H95.87v25.46h20.78v13.76H95.87v29.58h26.14v13.76H80.74V22.85z"/>
	</g>
	<g>
		<linearGradient id="SVGID_1_" gradientUnits="userSpaceOnUse" x1="77.347" y1="128.4588" x2="77.347" y2="326.5844">
			<stop  offset="0" style="stop-color:#F39425"/>
			<stop  offset="0.4363" style="stop-color:#F39225"/>
			<stop  offset="0.5952" style="stop-color:#F18B27"/>
			<stop  offset="0.7088" style="stop-color:#EF7F2A"/>
			<stop  offset="0.8008" style="stop-color:#EC6F2E"/>
			<stop  offset="0.8797" style="stop-color:#E85833"/>
			<stop  offset="0.9483" style="stop-color:#E43E39"/>
			<stop  offset="1" style="stop-color:#DF243F"/>
		</linearGradient>
		<path class="st0" d="M33.92,137.07v-8.61h86.86v8.61H33.92z M33.92,154.3v-8.61h86.86v8.61H33.92z M33.92,171.53v-8.61h86.86
			v163.67h-8.61V171.53h-8.61v155.05h-8.61V171.53h-8.61v155.05h-8.61V171.53h-8.61v155.05h-8.61V171.53H33.92z"/>
		
			<linearGradient id="SVGID_00000154426792735727650380000010318890684540797340_" gradientUnits="userSpaceOnUse" x1="235.034" y1="119.8443" x2="235.034" y2="335.1984">
			<stop  offset="0" style="stop-color:#F39425"/>
			<stop  offset="0.4363" style="stop-color:#F39225"/>
			<stop  offset="0.5952" style="stop-color:#F18B27"/>
			<stop  offset="0.7088" style="stop-color:#EF7F2A"/>
			<stop  offset="0.8008" style="stop-color:#EC6F2E"/>
			<stop  offset="0.8797" style="stop-color:#E85833"/>
			<stop  offset="0.9483" style="stop-color:#E43E39"/>
			<stop  offset="1" style="stop-color:#DF243F"/>
		</linearGradient>
		<path style="fill:url(#SVGID_00000154426792735727650380000010318890684540797340_);" d="M151.76,283.75
			c-8.3-16.43-12.44-35.17-12.44-56.23c0-21.06,4.15-39.8,12.44-56.23c8.29-16.43,19.7-29.11,34.22-38.05
			c14.52-8.93,30.87-13.4,49.05-13.4s34.54,4.47,49.05,13.4c14.52,8.93,25.92,21.62,34.22,38.05c8.29,16.43,12.44,35.17,12.44,56.23
			c0,21.06-4.15,39.8-12.44,56.23c-8.3,16.43-19.7,29.11-34.22,38.05c-14.52,8.93-30.87,13.4-49.05,13.4s-34.54-4.47-49.05-13.4
			C171.46,312.87,160.06,300.19,151.76,283.75z M154.52,187.02c-4.39,12.4-6.58,25.9-6.58,40.5c0,14.6,2.19,28.1,6.58,40.5
			c4.39,12.4,10.43,22.87,18.13,31.41c7.7,8.54,16.91,15.19,27.64,19.98c10.73,4.79,22.31,7.18,34.76,7.18
			c12.44,0,24.03-2.39,34.76-7.18c10.73-4.79,19.94-11.44,27.64-19.98c7.7-8.53,13.74-19,18.13-31.41c4.39-12.4,6.58-25.9,6.58-40.5
			c0-14.6-2.2-28.1-6.58-40.5c-4.39-12.4-10.43-22.87-18.13-31.41c-7.7-8.53-16.91-15.19-27.64-19.98
			c-10.73-4.79-22.31-7.18-34.76-7.18c-12.44,0-24.03,2.39-34.76,7.18c-10.73,4.79-19.94,11.45-27.64,19.98
			C164.94,164.15,158.9,174.62,154.52,187.02z M303.41,179.96c6.74,13.76,10.11,29.61,10.11,47.56s-3.37,33.8-10.11,47.56
			c-6.74,13.76-16.05,24.35-27.94,31.76c-11.89,7.42-25.36,11.13-40.44,11.13c-15.07,0-28.56-3.71-40.44-11.13
			c-11.89-7.42-21.2-18.01-27.94-31.76c-6.74-13.76-10.11-29.61-10.11-47.56s3.37-33.8,10.11-47.56
			c6.74-13.76,16.05-24.35,27.94-31.76c11.88-7.42,25.36-11.13,40.44-11.13c15.08,0,28.55,3.71,40.44,11.13
			C287.36,155.62,296.67,166.21,303.41,179.96z M184.61,168.06c-12.96,14.92-19.44,34.74-19.44,59.46
			c0,24.73,6.48,44.55,19.44,59.46c12.96,14.92,29.77,22.37,50.43,22.37c20.66,0,37.47-7.46,50.43-22.37
			c12.96-14.91,19.44-34.73,19.44-59.46c0-24.72-6.48-44.55-19.44-59.46c-12.96-14.91-29.77-22.37-50.43-22.37
			C214.38,145.69,197.57,153.15,184.61,168.06z M279.36,174.16c11.29,13.24,16.93,31.03,16.93,53.36c0,22.33-5.64,40.12-16.93,53.36
			c-11.29,13.24-26.06,19.86-44.33,19.86c-18.27,0-33.04-6.62-44.33-19.86c-11.29-13.24-16.93-31.03-16.93-53.36
			c0-22.33,5.64-40.12,16.93-53.36c11.29-13.24,26.06-19.86,44.33-19.86C253.3,154.3,268.07,160.92,279.36,174.16z M196.81,180.2
			c-9.61,11.53-14.42,27.3-14.42,47.32c0,20.02,4.8,35.79,14.42,47.32c9.61,11.53,22.35,17.29,38.22,17.29
			c15.87,0,28.61-5.76,38.23-17.29c9.61-11.52,14.42-27.3,14.42-47.32c0-20.02-4.81-35.79-14.42-47.32
			c-9.61-11.52-22.35-17.29-38.23-17.29C219.16,162.92,206.42,168.68,196.81,180.2z M267.16,186.31c7.94,9.85,11.9,23.59,11.9,41.22
			c0,17.63-3.97,31.37-11.9,41.22c-7.94,9.85-18.65,14.78-32.12,14.78c-13.48,0-24.19-4.92-32.12-14.78
			c-7.94-9.85-11.9-23.59-11.9-41.22c0-17.63,3.97-31.37,11.9-41.22c7.94-9.85,18.64-14.78,32.12-14.78
			C248.51,171.53,259.22,176.46,267.16,186.31z M209.01,192.35c-6.26,8.14-9.39,19.86-9.39,35.17s3.13,27.04,9.39,35.17
			c6.26,8.14,14.93,12.2,26.02,12.2c11.09,0,19.76-4.07,26.02-12.2c6.26-8.14,9.39-19.86,9.39-35.17s-3.13-27.04-9.39-35.17
			c-6.26-8.14-14.94-12.2-26.02-12.2C223.95,180.14,215.27,184.21,209.01,192.35z"/>
		
			<linearGradient id="SVGID_00000050652143757913663950000003844525903315264407_" gradientUnits="userSpaceOnUse" x1="414.9746" y1="128.4588" x2="414.9746" y2="326.5844">
			<stop  offset="0" style="stop-color:#F39425"/>
			<stop  offset="0.4363" style="stop-color:#F39225"/>
			<stop  offset="0.5952" style="stop-color:#F18B27"/>
			<stop  offset="0.7088" style="stop-color:#EF7F2A"/>
			<stop  offset="0.8008" style="stop-color:#EC6F2E"/>
			<stop  offset="0.8797" style="stop-color:#E85833"/>
			<stop  offset="0.9483" style="stop-color:#E43E39"/>
			<stop  offset="1" style="stop-color:#DF243F"/>
		</linearGradient>
		<path style="fill:url(#SVGID_00000050652143757913663950000003844525903315264407_);" d="M399.66,128.58l9.93-0.12l-53.6,116.29
			h-10.05L399.66,128.58z M346.18,257.67v-8.61h137.83v8.61H346.18z M346.18,274.9v-8.61h137.83v8.61H346.18z M346.18,292.13v-8.61
			h137.83v8.61H346.18z M419.28,128.58h9.57l-53.36,116.17h-10.05L419.28,128.58z M438.54,128.58h9.81l-52.88,116.17h-10.05
			L438.54,128.58z M458.17,128.58l9.93-0.12l-51.92,116.29h-10.05L458.17,128.58z M453.74,244.87h-8.61v-34.34h8.61V244.87z
			 M453.74,326.58h-8.61v-30.03h8.61V326.58z M470.97,244.87h-8.61v-34.34h8.61V244.87z M470.97,326.58h-8.61v-30.03h8.61V326.58z"
			/>
	</g>
</g>
</svg>
